<svg id="Layer_1" data-name="Layer 1" xmlns="http://www.w3.org/2000/svg" viewBox="0 0 19.49 19.71"><title>search2</title><path d="M19.42,18l-4.78-4.84a8.13,8.13,0,0,0-.72-10.62,7.93,7.93,0,0,0-11.32,0A8.18,8.18,0,0,0,2.6,14a7.9,7.9,0,0,0,5.66,2.38,7.82,7.82,0,0,0,4.83-1.65l4.81,4.81a1.06,1.06,0,0,0,.77.32A1.08,1.08,0,0,0,19.42,18ZM8.29,14.18a5.83,5.83,0,0,1-4.14-1.73,6,6,0,0,1,0-8.38,5.85,5.85,0,0,1,10,4.19,6,6,0,0,1-1.71,4.19A5.72,5.72,0,0,1,8.29,14.18Z" transform="translate(-0.25 -0.15)"/></svg>