<svg id="Layer_1" data-name="Layer 1" xmlns="http://www.w3.org/2000/svg" viewBox="0 0 8.59 8.69"><defs><style>.cls-1{fill:#212121;}</style></defs><title>searchbutton</title><path class="cls-1" d="M9.15,8.52,7,6.39a3.58,3.58,0,0,0-.32-4.68,3.49,3.49,0,0,0-5,0,3.61,3.61,0,0,0,0,5.05,3.48,3.48,0,0,0,2.5,1,3.45,3.45,0,0,0,2.13-.73L8.48,9.2a.47.47,0,0,0,.34.14.48.48,0,0,0,.33-.82ZM4.24,6.84a2.57,2.57,0,0,1-1.82-.76,2.65,2.65,0,0,1,0-3.69,2.58,2.58,0,0,1,4.4,1.85,2.63,2.63,0,0,1-.75,1.85A2.52,2.52,0,0,1,4.24,6.84Z" transform="translate(-0.7 -0.66)"/></svg>